<svg width="89" height="22" viewBox="0 0 89 22" fill="none" xmlns="http://www.w3.org/2000/svg">
<path d="M11.6638 17.5192C11.6093 16.9869 11.5747 16.4174 11.54 15.8133C11.5054 15.2092 11.4855 14.6051 11.4855 14.0356C11.4682 13.4489 11.4682 12.8621 11.4682 12.2926V9.80439C11.4682 9.00468 11.3791 8.2743 11.2008 7.63552C11.0226 6.95961 10.7205 6.37283 10.312 5.89251C9.90347 5.41219 9.35135 5.02101 8.65811 4.75361C7.9822 4.48622 7.12802 4.34509 6.15005 4.34509C5.47414 4.34509 4.79823 4.43423 4.12232 4.59516C3.46374 4.75609 2.85962 5.021 2.36197 5.37753C1.84699 5.73405 1.41867 6.19457 1.08195 6.72935C0.742759 7.26167 0.512502 7.90291 0.423371 8.63082L0.388705 8.82641L3.21615 9.55432L3.25081 9.30426C3.32261 8.71747 3.5182 8.23716 3.80293 7.88063C4.10498 7.54391 4.46151 7.27652 4.87003 7.13292C5.74153 6.81353 6.75417 6.83086 7.41275 7.16758C7.75194 7.32851 7.99953 7.54144 8.17779 7.82616C8.35605 8.09356 8.44518 8.43028 8.44518 8.80413C8.44518 9.03439 8.37338 9.21265 8.24958 9.33644C8.12579 9.47757 7.87573 9.60384 7.52168 9.67316C7.13049 9.77963 6.59818 9.86875 5.92227 9.94055C5.22903 10.0817 4.55311 10.2079 3.89453 10.3317C3.21862 10.4729 2.57985 10.6883 2.0104 10.9903C1.40629 11.3097 0.908638 11.738 0.552113 12.2703C0.195589 12.8027 0 13.4984 0 14.3327C0 15.1671 0.178261 15.8802 0.53231 16.4125C0.888835 16.9448 1.36915 17.3731 1.97327 17.6578C2.56005 17.9426 3.20129 18.1035 3.87473 18.1035C4.7809 18.1035 5.56327 17.9079 6.23918 17.5514C6.91509 17.1775 7.46721 16.6972 7.91039 16.0931C8.24958 15.6301 8.51451 15.1151 8.72743 14.5828C8.72743 15.0087 8.74476 15.437 8.74476 15.8455L8.81656 17.747H11.6787L11.6613 17.5167L11.6638 17.5192ZM4.85269 15.5979C4.30057 15.5979 3.8574 15.4568 3.55534 15.1894C3.25329 14.9047 3.10969 14.5135 3.10969 13.9812C3.10969 13.5355 3.19882 13.1988 3.41174 12.9685C3.60734 12.7185 3.90939 12.5229 4.28325 12.3644C4.67443 12.2035 5.10028 12.0797 5.5806 12.0079C6.06092 11.9188 6.54124 11.847 7.00175 11.7777C7.48207 11.6885 7.94506 11.5821 8.37091 11.4409C8.38824 11.4409 8.40557 11.4236 8.42537 11.4236L8.4427 12.3124C8.28177 12.8447 8.06885 13.3251 7.82126 13.7534C7.5712 14.1792 7.26914 14.5184 6.94975 14.7858C6.61056 15.0359 6.25651 15.2488 5.89999 15.3899C5.52613 15.5311 5.18942 15.6029 4.85022 15.6029L4.85269 15.5979Z" fill="#E7E7E7"/>
<path d="M32.6615 7.59845C32.5006 7.0092 32.2802 6.46946 32.0054 5.99904C31.7182 5.50387 31.3048 5.1003 30.7774 4.79577C30.25 4.49371 29.5939 4.34021 28.8264 4.34021C28.0589 4.34021 27.3582 4.52342 26.7516 4.88242C26.1401 5.2439 25.6276 5.80592 25.229 6.55364C24.9096 7.1528 24.6496 7.90051 24.459 8.78687C24.4243 8.27436 24.3575 7.79652 24.2634 7.35829C24.1297 6.72447 23.9093 6.18225 23.6073 5.74155C23.3028 5.29837 22.9066 4.95175 22.4288 4.70664C21.9509 4.464 21.3889 4.34021 20.7551 4.34021C20.0024 4.34021 19.3191 4.52342 18.7249 4.8849C18.1307 5.24885 17.6404 5.82078 17.274 6.58829C16.9819 7.20231 16.7442 7.95745 16.5684 8.83886L16.7689 4.63236H13.996L14.0232 17.7569H17.1007V12.2531C17.1477 11.1885 17.3013 10.2526 17.5538 9.47268C17.8014 8.70516 18.1356 8.11095 18.5466 7.70986C18.9452 7.3162 19.428 7.12803 20.0247 7.12803C20.5149 7.12803 20.8764 7.26421 21.1265 7.54398C21.3939 7.83861 21.5895 8.20999 21.7108 8.64822C21.8346 9.10378 21.9163 9.56924 21.946 10.0297C21.9782 10.5274 21.9955 10.9161 21.9955 11.2206V17.7594H25.0482V12.1838C25.0953 11.1513 25.2488 10.2427 25.5013 9.47516C25.7489 8.72497 26.0931 8.13571 26.5288 7.72472C26.9547 7.32363 27.4176 7.12803 27.95 7.12803C28.4402 7.12803 28.819 7.2543 29.074 7.50189C29.3439 7.76681 29.5419 8.11343 29.6608 8.5368C29.7846 8.98741 29.8663 9.43554 29.896 9.8713C29.9307 10.3343 29.9455 10.7205 29.9455 11.0498V17.7594H33.0478V10.7106C33.0478 10.2823 33.023 9.7995 32.9735 9.27461C32.924 8.7522 32.82 8.19018 32.6615 7.6034V7.59845Z" fill="#E7E7E7"/>
<path d="M47.299 7.56127C46.8731 6.54864 46.2665 5.74646 45.4842 5.17949C44.6845 4.61004 43.7065 4.30798 42.5849 4.30798C41.7852 4.30798 41.0746 4.46892 40.4879 4.7883C39.9011 5.09036 39.3861 5.57067 38.9949 6.19211C38.6755 6.68976 38.4081 7.29388 38.2125 7.96979L38.3561 4.62737H35.5634V21.5549H38.6582V18.0169C38.6582 17.5712 38.6409 17.128 38.6235 16.665C38.6062 16.1847 38.5344 15.6871 38.4626 15.1894C38.4279 14.9938 38.4106 14.8156 38.3735 14.6373C38.5344 15.1003 38.73 15.5435 38.9429 15.9347C39.3168 16.5932 39.8317 17.1255 40.4359 17.4994C41.0573 17.8733 41.8223 18.0688 42.7112 18.0688C43.7956 18.0688 44.7563 17.7841 45.5386 17.2147C46.321 16.6452 46.9251 15.8282 47.3163 14.8131C47.7248 13.8005 47.9204 12.5724 47.9204 11.1859C47.9204 9.79946 47.7075 8.57143 47.299 7.5588V7.56127ZM38.6582 10.9928C38.6582 10.5298 38.73 10.0693 38.8884 9.60634C39.0469 9.14335 39.2623 8.70017 39.5297 8.29165C39.7798 7.90047 40.1165 7.59841 40.5077 7.38548C40.8988 7.17256 41.3618 7.04877 41.8768 7.04877C42.4809 7.04877 43.0157 7.22703 43.4242 7.54641C43.8328 7.8658 44.1719 8.34612 44.3849 8.97004C44.6151 9.59148 44.7241 10.3565 44.7241 11.1934C44.7241 12.0302 44.6176 12.7928 44.4047 13.434C44.1917 14.0555 43.8724 14.5358 43.444 14.875C43.0182 15.2315 42.5205 15.39 41.8966 15.39C41.4708 15.39 41.0796 15.3008 40.7404 15.1399C40.4012 14.9616 40.0991 14.7141 39.8516 14.4293C39.5842 14.1099 39.3712 13.7881 39.193 13.434C38.9974 13.0973 38.8736 12.7408 38.7845 12.3496C38.6953 11.9757 38.6607 11.6217 38.6607 11.3172V10.9978L38.6582 10.9928Z" fill="#E7E7E7"/>
<path d="M44.5952 8.89577C44.365 8.23719 44.0084 7.72221 43.5628 7.36568C43.0998 7.00916 42.5303 6.83337 41.8742 6.83337C41.3221 6.83337 40.8245 6.95716 40.3986 7.18989C39.9728 7.42262 39.6162 7.75934 39.3315 8.16786C39.0468 8.61352 38.8339 9.07403 38.6729 9.53702C38.512 10.0173 38.4427 10.515 38.4427 10.9953V11.3147C38.4427 11.6514 38.4774 12.0079 38.5665 12.3991C38.6556 12.7903 38.7967 13.1815 38.975 13.538C39.1706 13.8945 39.4008 14.2313 39.6856 14.5705C39.953 14.8898 40.2724 15.1399 40.6462 15.3355C41.0027 15.5138 41.4286 15.6202 41.8916 15.6202C42.5675 15.6202 43.1196 15.4246 43.5801 15.0508C44.0258 14.6769 44.3798 14.1619 44.6126 13.5034C44.8255 12.8448 44.9493 12.0624 44.9493 11.1909C44.9493 10.3194 44.8255 9.55435 44.5927 8.89825L44.5952 8.89577ZM41.8916 15.1721C41.5004 15.1721 41.1439 15.083 40.8418 14.9418C40.5397 14.7809 40.255 14.5506 40.0248 14.2659C39.7574 13.9812 39.5444 13.6618 39.3835 13.3226C39.2053 13.0032 39.0815 12.664 39.0097 12.31C38.9205 11.9535 38.8859 11.6167 38.8859 11.3147V10.9953C38.8859 10.5496 38.9577 10.1065 39.0988 9.68062C39.2424 9.23497 39.4553 8.80911 39.7029 8.41793C39.9505 8.0614 40.255 7.77668 40.6091 7.58108C40.9656 7.38549 41.3914 7.27903 41.8718 7.27903C42.4239 7.27903 42.9042 7.42015 43.2756 7.72468C43.6668 8.02674 43.9688 8.47239 44.1644 9.03937C44.3947 9.64348 44.5011 10.3739 44.5011 11.1909C44.5011 12.0079 44.3947 12.7383 44.1817 13.3598C43.9862 13.9292 43.6841 14.3922 43.2929 14.7116C42.9191 15.0136 42.4561 15.1746 41.8891 15.1746L41.8916 15.1721Z" fill="#E7E7E7"/>
<path d="M55.9226 15.0285C55.6379 15.1052 55.3655 15.1424 55.0882 15.1424C54.6327 15.1424 54.2761 15.0309 53.9988 14.8032C53.7364 14.5878 53.6052 14.1793 53.6052 13.585V7.29634H57.0194V4.63231H53.6052V1.82715H51.5774L51.3571 3.57016C51.3299 3.9663 51.216 4.25598 51.0228 4.43671C50.8297 4.61745 50.498 4.71648 50.0424 4.73134H48.8466V7.2493H50.5524V13.7088C50.5524 14.3625 50.6341 14.9592 50.7926 15.4816C50.9535 16.0114 51.1962 16.4769 51.5155 16.8631C51.8399 17.2568 52.2608 17.5539 52.7683 17.747C53.2635 17.9351 53.8478 18.0292 54.5039 18.0292C54.8555 18.0292 55.2269 17.997 55.6379 17.9302C56.0414 17.8633 56.4747 17.7445 56.9228 17.5761L57.0664 17.5217V14.4046L56.7149 14.6521C56.4598 14.8329 56.1925 14.9592 55.9201 15.0334L55.9226 15.0285Z" fill="#E7E7E7"/>
<path d="M60.4532 0C59.8317 0 59.3539 0.136173 59.032 0.406042C58.6953 0.683339 58.5245 1.10671 58.5245 1.66131C58.5245 2.154 58.7003 2.54519 59.0444 2.82249C59.3762 3.08988 59.8491 3.22606 60.4532 3.22606C61.0573 3.22606 61.5549 3.08988 61.8842 2.82496C62.2309 2.54766 62.4066 2.14658 62.4066 1.63902C62.4066 1.13147 62.2284 0.705619 61.8743 0.418418C61.5351 0.141121 61.0573 0.00247451 60.4532 0.00247451V0Z" fill="#E7E7E7"/>
<path d="M62.0427 4.63245H58.9404V17.757H62.0427V4.63245Z" fill="#E7E7E7"/>
<path d="M69.963 14.9839L66.7617 4.6571H63.4069L68.0021 17.7569H71.8793L76.4201 4.6571H73.1396L69.963 14.9839Z" fill="#E7E7E7"/>
<path d="M86.1157 13.0379L86.0984 13.288C86.0984 13.5554 86.0266 13.8401 85.9028 14.105C85.7592 14.3724 85.6007 14.62 85.3705 14.8329C85.1749 15.0459 84.8901 15.2241 84.5336 15.3652C84.1969 15.5064 83.7686 15.5782 83.3056 15.5782C82.1667 15.5782 81.315 15.2216 80.7282 14.5111C80.1959 13.8698 79.8914 12.9637 79.8394 11.7901L88.7302 11.701L88.7475 11.5054C88.7995 10.3491 88.7302 9.33651 88.4975 8.44767C88.2846 7.55884 87.9107 6.81113 87.4131 6.18968C86.9154 5.56824 86.2742 5.10525 85.5289 4.78586C84.7985 4.48381 83.9642 4.34021 83.058 4.34021C82.0454 4.34021 81.1367 4.51847 80.3544 4.87252C79.5893 5.22904 78.9332 5.72669 78.3984 6.34813C77.8834 6.98938 77.4749 7.73462 77.2075 8.60612C76.9228 9.4603 76.799 10.4011 76.799 11.4162C76.799 12.4313 76.9228 13.3004 77.2075 14.1199C77.4749 14.9369 77.9008 15.65 78.4356 16.2367C78.9679 16.8062 79.6636 17.2692 80.4633 17.6059C81.263 17.9253 82.2063 18.1036 83.2561 18.1036C84.1103 18.1036 84.8728 17.9971 85.5314 17.7842C86.2073 17.5712 86.7768 17.2519 87.2571 16.8409C87.7547 16.4497 88.1286 15.9694 88.4133 15.437C88.6807 14.9221 88.859 14.3353 88.9654 13.7114L89.0001 13.4984L86.1182 13.0355L86.1157 13.0379ZM81.3323 7.45485C81.7953 7.09832 82.3821 6.93987 83.058 6.93987C83.6448 6.93987 84.1796 7.081 84.6228 7.36572C85.0684 7.65044 85.4051 8.09362 85.6007 8.66307C85.7072 8.9478 85.779 9.28452 85.8137 9.64104L79.9805 9.69551C80.0523 9.42812 80.1241 9.18053 80.2108 8.9478C80.4782 8.30655 80.8495 7.79157 81.3298 7.45485H81.3323Z" fill="#E7E7E7"/>
</svg>
