<svg width="32" height="32" viewBox="0 0 32 32" fill="none" xmlns="http://www.w3.org/2000/svg">
<path d="M9.52248 11.7977C9.88922 8.49704 12.6791 6 16 6V6C19.3209 6 22.1108 8.49704 22.4775 11.7977L22.7713 14.4416C22.831 14.9789 22.8608 15.2476 22.9106 15.5105C23.031 16.1464 23.239 16.7625 23.5286 17.3413C23.6483 17.5806 23.7874 17.8124 24.0656 18.2759L24.9098 19.683C25.6148 20.858 25.9673 21.4456 25.716 21.8894C25.4647 22.3333 24.7795 22.3333 23.4092 22.3333H8.59083C7.22049 22.3333 6.53532 22.3333 6.28399 21.8894C6.03267 21.4456 6.38518 20.858 7.09022 19.683L7.93443 18.2759C8.21258 17.8124 8.35166 17.5806 8.47142 17.3413C8.76105 16.7625 8.96902 16.1464 9.08939 15.5105C9.13916 15.2476 9.16901 14.9789 9.22871 14.4416L9.52248 11.7977Z" stroke="#7E7E7E" stroke-width="1.75"/>
<path d="M11.3346 22.3333C11.3346 22.9462 11.4553 23.553 11.6899 24.1192C11.9244 24.6854 12.2681 25.1998 12.7015 25.6332C13.1348 26.0665 13.6493 26.4102 14.2154 26.6448C14.7816 26.8793 15.3885 27 16.0013 27C16.6141 27 17.221 26.8793 17.7872 26.6448C18.3533 26.4102 18.8678 26.0665 19.3011 25.6332C19.7345 25.1998 20.0782 24.6854 20.3127 24.1192C20.5473 23.553 20.668 22.9462 20.668 22.3333" stroke="#7E7E7E" stroke-width="1.75" stroke-linecap="round"/>
</svg>
