<svg width="32" height="32" viewBox="0 0 32 32" fill="none" xmlns="http://www.w3.org/2000/svg">
<path fill-rule="evenodd" clip-rule="evenodd" d="M14.6856 7.18861C10.5638 7.18861 7.18861 10.597 7.18861 14.8436C7.18861 19.0903 10.5638 22.4987 14.6856 22.4987C16.673 22.4987 18.4805 21.7103 19.8257 20.4161C21.2758 19.021 22.1826 17.0431 22.1826 14.8436C22.1826 10.597 18.8074 7.18861 14.6856 7.18861ZM5 14.8436C5 9.42603 9.31769 5 14.6856 5C20.0536 5 24.3712 9.42603 24.3712 14.8436C24.3712 17.2557 23.5164 19.4688 22.0961 21.1824L26.791 25.9636C27.0733 26.2511 27.0691 26.713 26.7816 26.9953L26.261 27.5064C25.9736 27.7888 25.5117 27.7845 25.2294 27.497L20.5203 22.7013C18.8994 23.9461 16.8779 24.6873 14.6856 24.6873C9.31769 24.6873 5 20.2613 5 14.8436Z" fill="white" stroke="white"/>
</svg>
