<svg width="32" height="32" viewBox="0 0 32 32" fill="none" xmlns="http://www.w3.org/2000/svg">
<path d="M20.2051 20.8104L19.8257 20.4161L20.2051 20.8104C21.7591 19.3153 22.7297 17.1963 22.7297 14.8436C22.7297 10.3039 19.1185 6.64146 14.6856 6.64146C10.2527 6.64146 6.64146 10.3039 6.64146 14.8436C6.64146 19.3834 10.2527 23.0458 14.6856 23.0458C16.8213 23.0458 18.763 22.1978 20.2051 20.8104ZM21.6748 20.8332L21.3597 21.2134L21.7057 21.5657L26.4006 26.347L26.791 25.9636L26.4006 26.347C26.4712 26.4188 26.4701 26.5343 26.3982 26.605L25.8777 27.116L25.8776 27.1161C25.8058 27.1866 25.6904 27.1856 25.6198 27.1137L25.6198 27.1137L20.9107 22.318L20.5713 21.9723L20.1871 22.2674C18.6576 23.4419 16.7523 24.1401 14.6856 24.1401C9.62955 24.1401 5.54715 19.9688 5.54715 14.8436C5.54715 9.71845 9.62955 5.54715 14.6856 5.54715C19.7417 5.54715 23.824 9.71844 23.824 14.8436C23.824 17.1245 23.0161 19.2149 21.6748 20.8332Z" stroke="#7E7E7E" stroke-width="1.09431"/>
</svg>
