<svg width="87" height="87" viewBox="0 0 87 87" fill="none" xmlns="http://www.w3.org/2000/svg">
<path fill-rule="evenodd" clip-rule="evenodd" d="M73.95 17.4H13.05L13.05 69.6H73.95V17.4ZM13.05 8.70001C8.24513 8.70001 4.35001 12.5951 4.35001 17.4V69.6C4.35001 74.4049 8.24513 78.3 13.05 78.3H73.95C78.7549 78.3 82.65 74.4049 82.65 69.6V17.4C82.65 12.5951 78.7549 8.70001 73.95 8.70001H13.05Z" fill="white"/>
<path d="M45.675 39.15L13.05 69.6H73.95V32.625L58.725 52.2L45.675 39.15Z" fill="white"/>
<path d="M36.9751 32.625C36.9751 37.4299 33.08 41.325 28.2751 41.325C23.4703 41.325 19.5751 37.4299 19.5751 32.625C19.5751 27.8201 23.4703 23.925 28.2751 23.925C33.08 23.925 36.9751 27.8201 36.9751 32.625Z" fill="white"/>
</svg>
