<svg width="20" height="21" viewBox="0 0 20 21" fill="none" xmlns="http://www.w3.org/2000/svg">
<rect x="0.00012207" y="0.861328" width="19.2263" height="19.2263" rx="9.61314" fill="#FF6482"/>
<path d="M11.1267 8.44751C11.0964 8.11372 10.9613 7.85427 10.7216 7.66917C10.4849 7.48103 10.1466 7.38697 9.70659 7.38697C9.41528 7.38697 9.17253 7.4249 8.97832 7.50076C8.78412 7.57662 8.63846 7.68131 8.54136 7.81482C8.44426 7.94531 8.39419 8.09551 8.39116 8.26544C8.38509 8.40502 8.4124 8.52792 8.47309 8.63413C8.53681 8.74033 8.62784 8.8344 8.74619 8.91633C8.86757 8.99522 9.01322 9.06502 9.18315 9.12571C9.35308 9.1864 9.54425 9.2395 9.75666 9.28501L10.5578 9.46708C11.019 9.56722 11.4256 9.70073 11.7776 9.86763C12.1326 10.0345 12.43 10.2333 12.6697 10.4639C12.9125 10.6945 13.0961 10.96 13.2205 11.2604C13.3449 11.5609 13.4086 11.8977 13.4117 12.2709C13.4086 12.8596 13.2599 13.3648 12.9656 13.7866C12.6712 14.2084 12.2479 14.5316 11.6957 14.7561C11.1464 14.9807 10.4834 15.093 9.70659 15.093C8.92674 15.093 8.24702 14.9761 7.66744 14.7425C7.08786 14.5088 6.63724 14.1538 6.31559 13.6774C5.99394 13.201 5.82856 12.5986 5.81946 11.8704H7.97695C7.99516 12.1708 8.07557 12.4211 8.21819 12.6214C8.36081 12.8217 8.55653 12.9734 8.80536 13.0766C9.05722 13.1797 9.34853 13.2313 9.67928 13.2313C9.98273 13.2313 10.2407 13.1904 10.4531 13.1084C10.6685 13.0265 10.8339 12.9127 10.9492 12.767C11.0645 12.6214 11.1237 12.4545 11.1267 12.2664C11.1237 12.0904 11.0691 11.9402 10.9629 11.8157C10.8566 11.6883 10.6928 11.5791 10.4713 11.488C10.2528 11.394 9.97362 11.3075 9.63376 11.2286L8.65971 11.001C7.85254 10.8159 7.21682 10.517 6.75255 10.1043C6.28828 9.6886 6.05766 9.12722 6.0607 8.4202C6.05766 7.84365 6.21242 7.33841 6.52497 6.90449C6.83752 6.47056 7.26993 6.13222 7.8222 5.88947C8.37447 5.64671 9.00412 5.52533 9.71114 5.52533C10.4333 5.52533 11.06 5.64823 11.591 5.89402C12.125 6.13677 12.5393 6.47815 12.8336 6.91814C13.1279 7.35814 13.2781 7.86793 13.2842 8.44751H11.1267Z" fill="white" fill-opacity="0.8"/>
</svg>
