<svg width="32" height="32" viewBox="0 0 32 32" fill="none" xmlns="http://www.w3.org/2000/svg">
<path fill-rule="evenodd" clip-rule="evenodd" d="M16.633 5.22667C16.2643 4.92444 15.7336 4.92444 15.365 5.22669L4.63166 14.0267C4.30494 14.2945 4.18182 14.7389 4.32406 15.1367C4.46629 15.5345 4.84319 15.8 5.26568 15.8H6.82008L7.61482 24.4852C7.69328 25.3433 8.41288 26 9.27455 26H14.3327C14.7009 26 14.9993 25.7015 14.9993 25.3333V18.8769C14.9993 18.5087 15.2978 18.2102 15.666 18.2102H16.3327C16.7009 18.2102 16.9993 18.5087 16.9993 18.8769V25.3333C16.9993 25.7015 17.2978 26 17.666 26H22.7243C23.5859 26 24.3055 25.3433 24.384 24.4852L25.1787 15.8H26.7327C27.1552 15.8 27.5322 15.5345 27.6744 15.1367C27.8166 14.7388 27.6935 14.2945 27.3668 14.0267L16.633 5.22667Z" fill="white"/>
</svg>
