<svg width="22" height="22" viewBox="0 0 22 22" fill="none" xmlns="http://www.w3.org/2000/svg">
<g clip-path="url(#clip0_5002_30376)">
<path d="M14.668 19.25V17.4167C14.668 16.4442 14.2817 15.5116 13.594 14.8239C12.9064 14.1363 11.9738 13.75 11.0013 13.75H4.58464C3.61217 13.75 2.67954 14.1363 1.99191 14.8239C1.30428 15.5116 0.917969 16.4442 0.917969 17.4167V19.25" stroke="white" stroke-width="2" stroke-linecap="round" stroke-linejoin="round"/>
<path d="M7.79167 10.0833C9.81671 10.0833 11.4583 8.44171 11.4583 6.41667C11.4583 4.39162 9.81671 2.75 7.79167 2.75C5.76662 2.75 4.125 4.39162 4.125 6.41667C4.125 8.44171 5.76662 10.0833 7.79167 10.0833Z" stroke="white" stroke-width="2" stroke-linecap="round" stroke-linejoin="round"/>
<path d="M21.082 10.0835H15.582" stroke="white" stroke-width="2" stroke-linecap="round" stroke-linejoin="round"/>
</g>
<defs>
<clipPath id="clip0_5002_30376">
<rect width="22" height="22" fill="white"/>
</clipPath>
</defs>
</svg>
