<svg width="22" height="22" viewBox="0 0 22 22" fill="none" xmlns="http://www.w3.org/2000/svg">
<g clip-path="url(#clip0_5002_51803)">
<path d="M15.668 19.25V17.4167C15.668 16.4442 15.2817 15.5116 14.594 14.8239C13.9064 14.1363 12.9738 13.75 12.0013 13.75H5.58464C4.61217 13.75 3.67954 14.1363 2.99191 14.8239C2.30428 15.5116 1.91797 16.4442 1.91797 17.4167V19.25" stroke="white" stroke-width="2" stroke-linecap="round" stroke-linejoin="round"/>
<path d="M8.79167 10.0833C10.8167 10.0833 12.4583 8.44171 12.4583 6.41667C12.4583 4.39162 10.8167 2.75 8.79167 2.75C6.76662 2.75 5.125 4.39162 5.125 6.41667C5.125 8.44171 6.76662 10.0833 8.79167 10.0833Z" stroke="white" stroke-width="2" stroke-linecap="round" stroke-linejoin="round"/>
<path d="M18.332 7.3335V12.8335" stroke="white" stroke-width="2" stroke-linecap="round" stroke-linejoin="round"/>
<path d="M21.082 10.0835H15.582" stroke="white" stroke-width="2" stroke-linecap="round" stroke-linejoin="round"/>
</g>
<defs>
<clipPath id="clip0_5002_51803">
<rect width="22" height="22" fill="white"/>
</clipPath>
</defs>
</svg>
