<svg width="78" height="70" viewBox="0 0 78 70" fill="none" xmlns="http://www.w3.org/2000/svg">
<path d="M77.9552 53.5155C77.7706 59.1436 77.1483 64.4414 73.7562 65.2396C73.4827 65.2946 73.2433 65.329 72.9835 65.329C68.9828 65.329 65.536 58.146 61.8842 50.5777C59.1487 44.929 55.8455 38.0624 53.1169 37.0097C50.5455 38.2069 48.7469 46.0023 47.3176 52.3666C45.3344 61.077 43.4469 69.3333 39.0222 69.3333C34.5975 69.3333 32.71 61.0839 30.7268 52.3528C29.2975 45.9816 27.5126 38.1932 24.948 36.996C22.1988 37.9592 18.8752 44.8808 16.1192 50.5846C12.4673 58.1529 9.02056 65.3359 5.01989 65.3359C4.76002 65.3359 4.52749 65.3015 4.24711 65.2464C0.855082 64.4552 0.225916 59.1574 0.0481085 53.5224C-0.464798 37.739 3.13239 22.1621 10.4157 8.44278C12.8366 3.86739 15.7909 -0.694243 19.1488 0.0969904C23.464 1.09463 23.4435 9.55051 23.423 18.5018C23.423 24.7422 23.4025 32.3311 25.3652 34.5053C27.6767 32.6407 29.3317 25.4233 30.6857 19.4581C32.669 10.727 34.5565 2.47757 38.9812 2.47757C43.4058 2.47757 45.2933 10.727 47.2766 19.4788C48.6375 25.4577 50.2856 32.7164 52.6176 34.5397C54.6009 32.3999 54.5804 24.7766 54.5804 18.4949C54.5598 9.54363 54.5462 1.08776 58.8546 0.0901139C62.2329 -0.701119 65.1668 3.85363 67.5877 8.43591C74.8709 22.1483 78.4476 37.7322 77.9552 53.5155Z" fill="white"/>
</svg>
