<svg width="196" height="154" viewBox="0 0 196 154" fill="none" xmlns="http://www.w3.org/2000/svg">
<path d="M195.888 118.866C195.424 131.367 193.86 143.134 185.336 144.907C184.649 145.029 184.047 145.106 183.394 145.106C173.341 145.106 164.68 129.151 155.504 112.341C149.438 101.261 142.254 88.0574 135.913 83.5186C134.47 82.4794 132.373 82.6017 131.136 83.8395C125.895 89.1272 122.045 103.92 118.883 116.314C113.9 135.661 109.157 154 98.0386 154C86.9202 154 82.1772 135.677 77.1937 116.284C74.0317 103.874 70.1996 89.0202 64.9583 83.7784C63.7382 82.5558 61.676 82.4183 60.2153 83.4269C53.8399 87.8434 46.6052 101.154 40.4874 112.356C31.3109 129.166 22.6499 145.121 12.5969 145.121C11.9439 145.121 11.3596 145.045 10.655 144.922C2.14867 143.134 0.584871 131.367 0.120888 118.866C-1.16795 83.809 7.87113 49.1948 26.1727 18.7374C32.256 8.55951 39.6798 -1.55729 48.1174 0.200157C58.9609 2.41607 58.9093 21.1979 58.8578 41.08C58.8578 51.7469 58.8234 64.1866 61.0574 71.5526C61.8822 74.2576 65.9893 74.6396 67.45 72.1486C71.4025 65.3634 74.4785 53.4585 77.1078 43.2195C82.0913 23.8264 86.8342 5.50307 97.9527 5.50307C109.071 5.50307 113.814 23.8264 118.798 43.2653C121.444 53.5655 124.537 65.5773 128.524 72.332C129.985 74.8077 134.075 74.4257 134.899 71.736C137.168 64.3853 137.151 51.8386 137.151 41.08C137.099 21.1979 137.065 2.41607 147.891 0.200157C156.38 -1.55729 163.752 8.55951 169.836 18.7374C188.137 49.1948 197.125 83.809 195.888 118.866Z" fill="white"/>
</svg>
