<svg width="17" height="18" viewBox="0 0 17 18" fill="none" xmlns="http://www.w3.org/2000/svg">
<g id="Microphone" clip-path="url(#clip0_748_1154)">
<g id="Union">
<path d="M8.52143 1.56641C7.13302 1.56641 6.00749 2.69194 6.00749 4.08035V4.81666L10.9502 9.75939C11.0058 9.5517 11.0354 9.33342 11.0354 9.10822V4.08035C11.0354 2.69194 9.90984 1.56641 8.52143 1.56641Z" fill="black"/>
<path d="M6.00749 8.27024V9.10822C6.00749 10.4966 7.13302 11.6222 8.52143 11.6222C8.77541 11.6222 9.0206 11.5845 9.2517 11.5145L10.1256 12.3884C9.61451 12.5875 9.07054 12.6898 8.52148 12.6898C7.9411 12.6898 7.3664 12.5755 6.8302 12.3534C6.294 12.1312 5.8068 11.8057 5.39641 11.3953C4.98601 10.9849 4.66047 10.4977 4.43837 9.96152C4.30879 9.64868 4.2159 9.32273 4.16099 8.99019C4.09593 8.59613 3.77818 8.27024 3.37879 8.27024C2.9794 8.27024 2.65103 8.59522 2.70014 8.99158C2.76489 9.51407 2.89982 10.0266 3.10213 10.515C3.39692 11.2267 3.829 11.8733 4.37369 12.418C4.91839 12.9627 5.56503 13.3948 6.27671 13.6896C6.72875 13.8768 7.20139 14.0063 7.68349 14.0759V16.65H9.35945V14.0759C9.84156 14.0064 10.3142 13.8768 10.7662 13.6896C10.9197 13.626 11.0702 13.5561 11.2172 13.48L14.3873 16.65L15.2761 15.7612L1.86843 2.35355L0.979614 3.24237L6.00749 8.27024Z" fill="black"/>
<path d="M13.9408 10.515C13.7312 11.0212 13.4521 11.4945 13.1124 11.9215L12.0808 10.89C12.2918 10.6034 12.4678 10.2918 12.6046 9.96152C12.7342 9.64868 12.8271 9.32273 12.882 8.99019C12.947 8.59613 13.2648 8.27024 13.6642 8.27024C14.0636 8.27024 14.3919 8.59522 14.3428 8.99159C14.2781 9.51407 14.1431 10.0266 13.9408 10.515Z" fill="black"/>
</g>
</g>
<defs>
<clipPath id="clip0_748_1154">
<rect width="16.7596" height="16.7596" fill="white" transform="translate(0.141663 0.728455)"/>
</clipPath>
</defs>
</svg>
