<svg width="24" height="25" viewBox="0 0 24 25" fill="none" xmlns="http://www.w3.org/2000/svg">
<path d="M11.7495 14.3608C12.831 14.3608 13.7077 13.4841 13.7077 12.4026C13.7077 11.3211 12.831 10.4443 11.7495 10.4443C10.668 10.4443 9.79126 11.3211 9.79126 12.4026C9.79126 13.4841 10.668 14.3608 11.7495 14.3608Z" fill="#A8A8A8" stroke="#A8A8A8" stroke-width="1.95823" stroke-linecap="round" stroke-linejoin="round"/>
<path d="M15.9007 8.25234C16.4469 8.79795 16.8802 9.44586 17.1759 10.159C17.4715 10.8722 17.6237 11.6367 17.6237 12.4087C17.6237 13.1807 17.4715 13.9452 17.1759 14.6583C16.8802 15.3715 16.4469 16.0194 15.9007 16.565M7.59782 16.5552C7.05161 16.0096 6.6183 15.3617 6.32266 14.6486C6.02702 13.9354 5.87485 13.1709 5.87485 12.3989C5.87485 11.6269 6.02702 10.8624 6.32266 10.1492C6.6183 9.43607 7.05161 8.78815 7.59782 8.24255M18.6716 5.48145C20.5072 7.31756 21.5383 9.80753 21.5383 12.4038C21.5383 15.0001 20.5072 17.49 18.6716 19.3261M4.82692 19.3261C2.99136 17.49 1.96021 15.0001 1.96021 12.4038C1.96021 9.80753 2.99136 7.31756 4.82692 5.48145" stroke="#A8A8A8" stroke-width="1.95823" stroke-linecap="round" stroke-linejoin="round"/>
</svg>
