<svg width="30" height="30" viewBox="0 0 30 30" fill="none" xmlns="http://www.w3.org/2000/svg">
<path fill-rule="evenodd" clip-rule="evenodd" d="M27.5 19.7727C27.5 22.9107 24.9562 25.4545 21.8182 25.4545H8.18182C5.04384 25.4545 2.5 22.9107 2.5 19.7727V10.6818C2.5 7.54384 5.04384 5 8.18182 5H21.8182C24.9562 5 27.5 7.54384 27.5 10.6818V19.7727ZM8.18182 7.03409H21.8182C23.8328 7.03409 25.4659 8.66723 25.4659 10.6818V11.8182H21.8182C19.9354 11.8182 18.4091 13.3445 18.4091 15.2273C18.4091 17.1101 19.9354 18.6364 21.8182 18.6364H25.4659V19.7727C25.4659 21.7873 23.8328 23.4205 21.8182 23.4205H8.18182C6.16723 23.4205 4.53409 21.7873 4.53409 19.7727V10.6818C4.53409 8.66723 6.16723 7.03409 8.18182 7.03409ZM25.4659 16.6023V13.8523H21.8182C21.0588 13.8523 20.4432 14.4679 20.4432 15.2273C20.4432 15.9867 21.0588 16.6023 21.8182 16.6023H25.4659Z" fill="white"/>
</svg>
